<?xml version="1.0" encoding="UTF-8"?>
<!DOCTYPE svg PUBLIC "-//W3C//DTD SVG 1.1//EN" "http://www.w3.org/Graphics/SVG/1.1/DTD/svg11.dtd">
<svg xmlns="http://www.w3.org/2000/svg" version="1.1" width="800px" height="800px" style="shape-rendering:geometricPrecision; text-rendering:geometricPrecision; image-rendering:optimizeQuality; fill-rule:evenodd; clip-rule:evenodd" xmlns:xlink="http://www.w3.org/1999/xlink">
<g><path style="opacity:1" fill="#0079fe" d="M -0.5,-0.5 C 266.167,-0.5 532.833,-0.5 799.5,-0.5C 799.5,266.167 799.5,532.833 799.5,799.5C 532.833,799.5 266.167,799.5 -0.5,799.5C -0.5,532.833 -0.5,266.167 -0.5,-0.5 Z"/></g>
<g><path style="opacity:1" fill="#fefefe" d="M 634.5,409.5 C 635.499,476.665 635.832,543.998 635.5,611.5C 479.833,611.5 324.167,611.5 168.5,611.5C 168.333,522.499 168.5,433.499 169,344.5C 178.975,272.672 214.475,217.506 275.5,179C 317.498,154.53 362.164,148.197 409.5,160C 431.482,165.321 451.649,174.487 470,187.5C 481.504,183.246 490.171,186.58 496,197.5C 496.333,202.5 496.667,207.5 497,212.5C 499.951,215.572 502.784,218.739 505.5,222C 530.937,219.15 548.77,229.316 559,252.5C 562.448,266.16 560.615,278.993 553.5,291C 564.206,298.854 566.372,308.687 560,320.5C 548.954,331.234 538.288,330.901 528,319.5C 526.57,316.647 525.737,313.647 525.5,310.5C 506.652,313.331 491.319,307.331 479.5,292.5C 465.038,309.544 447.038,314.711 425.5,308C 419.284,305.392 413.951,301.559 409.5,296.5C 388.052,315.677 366.052,316.343 343.5,298.5C 319.24,330.781 312.74,366.447 324,405.5C 340.126,452.962 372.626,482.128 421.5,493C 447.334,495.256 473.001,493.922 498.5,489C 521.594,483.785 542.261,473.785 560.5,459C 576.693,444.135 594.026,430.802 612.5,419C 619.516,414.989 626.85,411.822 634.5,409.5 Z"/></g>
<g><path style="opacity:1" fill="#fcfdfe" d="M 587.5,240.5 C 607.539,240.377 615.039,250.044 610,269.5C 603.026,279.75 593.859,282.25 582.5,277C 574.931,270.504 572.431,262.338 575,252.5C 577.769,246.895 581.936,242.895 587.5,240.5 Z"/></g>
<g><path style="opacity:1" fill="#fdfdfe" d="M 426.5,323.5 C 443.76,325.949 449.927,335.615 445,352.5C 438.038,362.745 428.872,365.245 417.5,360C 409.486,352.769 407.319,343.936 411,333.5C 414.785,327.857 419.952,324.523 426.5,323.5 Z"/></g>
<g><path style="opacity:1" fill="#fbfdfe" d="M 591.5,337.5 C 606.953,339.395 613.453,348.061 611,363.5C 605.504,375.996 596.337,379.829 583.5,375C 572.299,365.894 570.799,355.394 579,343.5C 582.653,340.237 586.819,338.237 591.5,337.5 Z"/></g>
<g><path style="opacity:1" fill="#c0ddfe" d="M 634.5,409.5 C 634.56,408.957 634.893,408.624 635.5,408.5C 636.832,476.332 636.832,543.999 635.5,611.5C 635.832,543.998 635.499,476.665 634.5,409.5 Z"/></g>
</svg>
