<?xml version="1.0" encoding="UTF-8"?>
<!DOCTYPE svg PUBLIC "-//W3C//DTD SVG 1.1//EN" "http://www.w3.org/Graphics/SVG/1.1/DTD/svg11.dtd">
<svg xmlns="http://www.w3.org/2000/svg" version="1.1" width="600px" height="600px" style="shape-rendering:geometricPrecision; text-rendering:geometricPrecision; image-rendering:optimizeQuality; fill-rule:evenodd; clip-rule:evenodd" xmlns:xlink="http://www.w3.org/1999/xlink">
<g><path style="opacity:0.995" fill="#fefffe" d="M 249.5,74.5 C 293.186,71.5862 333.186,82.0862 369.5,106C 390.204,102.36 400.038,111.193 399,132.5C 401.5,135.667 404,138.833 406.5,142C 433.665,138.821 451.832,149.988 461,175.5C 463.499,187.842 461.665,199.509 455.5,210.5C 463.956,216.778 466.789,225.111 464,235.5C 457.221,249.045 447.055,252.211 433.5,245C 428.882,241.267 426.216,236.433 425.5,230.5C 407.316,233.327 392.316,227.66 380.5,213.5C 361.793,233.671 340.459,236.838 316.5,223C 314.333,220.833 312.167,218.667 310,216.5C 295.369,231.295 278.202,235.128 258.5,228C 253.446,225.611 248.946,222.445 245,218.5C 218.033,255.618 213.033,295.618 230,338.5C 251.128,382.626 285.961,407.793 334.5,414C 371.852,416.863 407.185,409.863 440.5,393C 447.007,388.914 453.34,384.58 459.5,380C 475.23,364.978 492.23,351.645 510.5,340C 519.167,335.416 528.001,331.249 537,327.5C 537.5,395.499 537.667,463.499 537.5,531.5C 381.5,531.5 225.5,531.5 69.5,531.5C 69.3333,442.166 69.5,352.833 70,263.5C 77.3833,205.222 103.217,157.055 147.5,119C 177.113,94.0251 211.113,79.1917 249.5,74.5 Z"/></g>
<g><path style="opacity:0.949" fill="#fefffe" d="M 491.5,159.5 C 505.131,159.632 512.464,166.465 513.5,180C 512.838,192.33 506.338,199.163 494,200.5C 475.585,196.002 470.252,185.002 478,167.5C 481.696,163.268 486.196,160.602 491.5,159.5 Z"/></g>
<g><path style="opacity:0.942" fill="#fefffe" d="M 323.5,243.5 C 340.803,242.304 348.97,250.304 348,267.5C 344.461,279.858 336.294,285.025 323.5,283C 310.039,276.564 306.206,266.397 312,252.5C 315.158,248.493 318.992,245.493 323.5,243.5 Z"/></g>
<g><path style="opacity:0.947" fill="#fefffe" d="M 488.5,257.5 C 509.601,257.785 517.101,268.118 511,288.5C 499.624,300.494 488.291,300.494 477,288.5C 471.111,274.314 474.945,263.981 488.5,257.5 Z"/></g>
</svg>
