<?xml version="1.0" encoding="UTF-8"?>
<!DOCTYPE svg PUBLIC "-//W3C//DTD SVG 1.1//EN" "http://www.w3.org/Graphics/SVG/1.1/DTD/svg11.dtd">
<svg xmlns="http://www.w3.org/2000/svg" version="1.1" width="96px" height="96px" style="shape-rendering:geometricPrecision; text-rendering:geometricPrecision; image-rendering:optimizeQuality; fill-rule:evenodd; clip-rule:evenodd" xmlns:xlink="http://www.w3.org/1999/xlink">
<g><path style="opacity:0.682" fill="#000000" d="M 43.5,7.5 C 50.6929,5.53896 54.1929,8.20563 54,15.5C 62.3333,18.5 68,24.1667 71,32.5C 71.3333,42.8333 71.6667,53.1667 72,63.5C 74.3333,65.8333 76.6667,68.1667 79,70.5C 79.4935,72.1341 79.6602,73.8008 79.5,75.5C 71.5,75.5 63.5,75.5 55.5,75.5C 56.29,86.8598 51.4566,90.1931 41,85.5C 39.6842,82.3117 39.1842,78.9783 39.5,75.5C 31.5,75.5 23.5,75.5 15.5,75.5C 15.3398,73.8008 15.5065,72.1341 16,70.5C 18.3333,68.1667 20.6667,65.8333 23,63.5C 23.0659,52.0954 23.7325,40.762 25,29.5C 28.4784,22.6867 33.8118,18.02 41,15.5C 41.0971,12.5177 41.9304,9.85106 43.5,7.5 Z"/></g>
</svg>
