<?xml version="1.0" encoding="UTF-8"?>
<!DOCTYPE svg PUBLIC "-//W3C//DTD SVG 1.1//EN" "http://www.w3.org/Graphics/SVG/1.1/DTD/svg11.dtd">
<svg xmlns="http://www.w3.org/2000/svg" version="1.1" width="80px" height="80px" style="shape-rendering:geometricPrecision; text-rendering:geometricPrecision; image-rendering:optimizeQuality; fill-rule:evenodd; clip-rule:evenodd" xmlns:xlink="http://www.w3.org/1999/xlink">
<g><path style="opacity:0.792" fill="#000000" d="M 79.5,24.5 C 79.5,27.8333 79.5,31.1667 79.5,34.5C 78.2641,36.6107 76.7641,38.6107 75,40.5C 74.5002,50.1609 74.3335,59.8276 74.5,69.5C 51.1667,69.5 27.8333,69.5 4.5,69.5C 4.5,55.5 4.5,41.5 4.5,27.5C 14.8333,27.5 25.1667,27.5 35.5,27.5C 34.6097,8.22154 43.2764,1.72154 61.5,8C 64.23,10.1301 66.23,12.7968 67.5,16C 73.1869,16.6589 77.1869,19.4922 79.5,24.5 Z M 46.5,9.5 C 49.8333,8.16667 53.1667,8.16667 56.5,9.5C 54.9519,9.82124 54.2852,10.8212 54.5,12.5C 55.5,12.5 56.5,12.5 57.5,12.5C 57.5,14.5 58.5,15.5 60.5,15.5C 60.5,16.5 60.5,17.5 60.5,18.5C 62.1788,18.7148 63.1788,18.0481 63.5,16.5C 64.8333,19.8333 64.8333,23.1667 63.5,26.5C 63.1788,24.9519 62.1788,24.2852 60.5,24.5C 60.5,25.5 60.5,26.5 60.5,27.5C 58.5,27.5 57.5,28.5 57.5,30.5C 56.5,30.5 55.5,30.5 54.5,30.5C 54.2852,32.1788 54.9519,33.1788 56.5,33.5C 53.1667,34.8333 49.8333,34.8333 46.5,33.5C 48.0481,33.1788 48.7148,32.1788 48.5,30.5C 47.5,30.5 46.5,30.5 45.5,30.5C 45.5,28.5 44.5,27.5 42.5,27.5C 42.5,26.5 42.5,25.5 42.5,24.5C 40.8212,24.2852 39.8212,24.9519 39.5,26.5C 38.1667,23.1667 38.1667,19.8333 39.5,16.5C 39.8212,18.0481 40.8212,18.7148 42.5,18.5C 42.5,17.5 42.5,16.5 42.5,15.5C 44.5,15.5 45.5,14.5 45.5,12.5C 46.5,12.5 47.5,12.5 48.5,12.5C 48.7148,10.8212 48.0481,9.82124 46.5,9.5 Z M 46.5,9.5 C 45.8902,10.391 45.5569,11.391 45.5,12.5C 44.5,12.5 43.5,12.5 42.5,12.5C 43.2623,10.7376 44.5956,9.73758 46.5,9.5 Z M 56.5,9.5 C 58.4044,9.73758 59.7377,10.7376 60.5,12.5C 59.5,12.5 58.5,12.5 57.5,12.5C 57.4431,11.391 57.1098,10.391 56.5,9.5 Z M 42.5,12.5 C 42.5,13.5 42.5,14.5 42.5,15.5C 41.391,15.5569 40.391,15.8902 39.5,16.5C 39.7376,14.5956 40.7376,13.2623 42.5,12.5 Z M 60.5,12.5 C 62.2624,13.2623 63.2624,14.5956 63.5,16.5C 62.609,15.8902 61.609,15.5569 60.5,15.5C 60.5,14.5 60.5,13.5 60.5,12.5 Z M 67.5,19.5 C 75.1407,21.0989 77.974,25.7656 76,33.5C 73.0812,39.0248 68.5812,40.8581 62.5,39C 60.0958,38.4921 59.4291,37.3255 60.5,35.5C 61.1667,36.1667 61.8333,36.8333 62.5,37.5C 63.731,36.3493 63.731,35.1827 62.5,34C 66.8445,30.1245 68.5112,25.2912 67.5,19.5 Z M 39.5,26.5 C 40.391,27.1098 41.391,27.4431 42.5,27.5C 42.5,28.5 42.5,29.5 42.5,30.5C 40.7376,29.7377 39.7376,28.4044 39.5,26.5 Z M 63.5,26.5 C 63.2624,28.4044 62.2624,29.7377 60.5,30.5C 60.5,29.5 60.5,28.5 60.5,27.5C 61.609,27.4431 62.609,27.1098 63.5,26.5 Z M 6.5,29.5 C 16.8548,29.1681 27.1881,29.5014 37.5,30.5C 36.1091,32.9358 36.6091,33.6025 39,32.5C 43.5879,36.8244 49.0879,38.6578 55.5,38C 60.3026,42.398 65.8026,43.5647 72,41.5C 72.4998,50.1603 72.6664,58.8269 72.5,67.5C 50.5,67.5 28.5,67.5 6.5,67.5C 6.5,54.8333 6.5,42.1667 6.5,29.5 Z M 42.5,30.5 C 43.5,30.5 44.5,30.5 45.5,30.5C 45.5569,31.609 45.8902,32.609 46.5,33.5C 44.5956,33.2624 43.2623,32.2624 42.5,30.5 Z M 57.5,30.5 C 58.5,30.5 59.5,30.5 60.5,30.5C 59.7377,32.2624 58.4044,33.2624 56.5,33.5C 57.1098,32.609 57.4431,31.609 57.5,30.5 Z M 35.5,40.5 C 44.6571,39.4892 48.4904,43.4892 47,52.5C 42,57.8333 37,57.8333 32,52.5C 30.5934,47.6427 31.76,43.6427 35.5,40.5 Z M 17.5,47.5 C 19.337,47.6395 19.6704,48.3061 18.5,49.5C 17.7025,49.0431 17.3691,48.3764 17.5,47.5 Z M 58.5,47.5 C 60.337,47.6395 60.6704,48.3061 59.5,49.5C 58.7025,49.0431 58.3691,48.3764 58.5,47.5 Z"/></g>
<g><path style="opacity:0.383" fill="#000000" d="M 46.5,9.5 C 48.0481,9.82124 48.7148,10.8212 48.5,12.5C 47.5,12.5 46.5,12.5 45.5,12.5C 45.5569,11.391 45.8902,10.391 46.5,9.5 Z"/></g>
<g><path style="opacity:0.766" fill="#000000" d="M 50.5,9.5 C 52.337,9.63945 52.6704,10.3061 51.5,11.5C 50.7025,11.0431 50.3691,10.3764 50.5,9.5 Z"/></g>
<g><path style="opacity:0.382" fill="#000000" d="M 56.5,9.5 C 57.1098,10.391 57.4431,11.391 57.5,12.5C 56.5,12.5 55.5,12.5 54.5,12.5C 54.2852,10.8212 54.9519,9.82124 56.5,9.5 Z"/></g>
<g><path style="opacity:0.383" fill="#000000" d="M 42.5,12.5 C 43.5,12.5 44.5,12.5 45.5,12.5C 45.5,14.5 44.5,15.5 42.5,15.5C 42.5,14.5 42.5,13.5 42.5,12.5 Z"/></g>
<g><path style="opacity:0.383" fill="#000000" d="M 57.5,12.5 C 58.5,12.5 59.5,12.5 60.5,12.5C 60.5,13.5 60.5,14.5 60.5,15.5C 58.5,15.5 57.5,14.5 57.5,12.5 Z"/></g>
<g><path style="opacity:0.383" fill="#000000" d="M 42.5,15.5 C 42.5,16.5 42.5,17.5 42.5,18.5C 40.8212,18.7148 39.8212,18.0481 39.5,16.5C 40.391,15.8902 41.391,15.5569 42.5,15.5 Z"/></g>
<g><path style="opacity:0.672" fill="#000000" d="M 47.5,15.5 C 50.1667,15.5 52.8333,15.5 55.5,15.5C 55.5,16.5 55.5,17.5 55.5,18.5C 53.8008,18.3398 52.1341,18.5065 50.5,19C 56.4623,19.5889 57.7956,22.2555 54.5,27C 51.095,28.1018 48.4283,27.2685 46.5,24.5C 48.5756,23.9003 50.5756,23.567 52.5,23.5C 50.604,22.5344 48.604,22.2011 46.5,22.5C 46.9926,20.1944 47.3259,17.861 47.5,15.5 Z"/></g>
<g><path style="opacity:0.383" fill="#000000" d="M 60.5,15.5 C 61.609,15.5569 62.609,15.8902 63.5,16.5C 63.1788,18.0481 62.1788,18.7148 60.5,18.5C 60.5,17.5 60.5,16.5 60.5,15.5 Z"/></g>
<g><path style="opacity:0.766" fill="#000000" d="M 39.5,20.5 C 41.337,20.6395 41.6704,21.3061 40.5,22.5C 39.7025,22.0431 39.3691,21.3764 39.5,20.5 Z"/></g>
<g><path style="opacity:0.766" fill="#000000" d="M 61.5,20.5 C 63.337,20.6395 63.6704,21.3061 62.5,22.5C 61.7025,22.0431 61.3691,21.3764 61.5,20.5 Z"/></g>
<g><path style="opacity:0.51" fill="#000000" d="M 71.5,24.5 C 69.5354,24.0517 69.2021,23.0517 70.5,21.5C 71.3857,22.325 71.719,23.325 71.5,24.5 Z"/></g>
<g><path style="opacity:0.383" fill="#000000" d="M 42.5,27.5 C 41.391,27.4431 40.391,27.1098 39.5,26.5C 39.8212,24.9519 40.8212,24.2852 42.5,24.5C 42.5,25.5 42.5,26.5 42.5,27.5 Z"/></g>
<g><path style="opacity:0.383" fill="#000000" d="M 63.5,26.5 C 62.609,27.1098 61.609,27.4431 60.5,27.5C 60.5,26.5 60.5,25.5 60.5,24.5C 62.1788,24.2852 63.1788,24.9519 63.5,26.5 Z"/></g>
<g><path style="opacity:0.511" fill="#000000" d="M 71.5,24.5 C 72.675,24.281 73.675,24.6143 74.5,25.5C 72.9483,26.7979 71.9483,26.4646 71.5,24.5 Z"/></g>
<g><path style="opacity:0.383" fill="#000000" d="M 42.5,27.5 C 44.5,27.5 45.5,28.5 45.5,30.5C 44.5,30.5 43.5,30.5 42.5,30.5C 42.5,29.5 42.5,28.5 42.5,27.5 Z"/></g>
<g><path style="opacity:0.383" fill="#000000" d="M 60.5,27.5 C 60.5,28.5 60.5,29.5 60.5,30.5C 59.5,30.5 58.5,30.5 57.5,30.5C 57.5,28.5 58.5,27.5 60.5,27.5 Z"/></g>
<g><path style="opacity:0.766" fill="#000000" d="M 73.5,28.5 C 75.337,28.6395 75.6704,29.3061 74.5,30.5C 73.7025,30.0431 73.3691,29.3764 73.5,28.5 Z"/></g>
<g><path style="opacity:0.383" fill="#000000" d="M 45.5,30.5 C 46.5,30.5 47.5,30.5 48.5,30.5C 48.7148,32.1788 48.0481,33.1788 46.5,33.5C 45.8902,32.609 45.5569,31.609 45.5,30.5 Z"/></g>
<g><path style="opacity:0.383" fill="#000000" d="M 57.5,30.5 C 57.4431,31.609 57.1098,32.609 56.5,33.5C 54.9519,33.1788 54.2852,32.1788 54.5,30.5C 55.5,30.5 56.5,30.5 57.5,30.5 Z"/></g>
<g><path style="opacity:0.766" fill="#000000" d="M 16.5,31.5 C 18.337,31.6395 18.6704,32.3061 17.5,33.5C 16.7025,33.0431 16.3691,32.3764 16.5,31.5 Z"/></g>
<g><path style="opacity:0.766" fill="#000000" d="M 20.5,31.5 C 22.337,31.6395 22.6704,32.3061 21.5,33.5C 20.7025,33.0431 20.3691,32.3764 20.5,31.5 Z"/></g>
<g><path style="opacity:0.766" fill="#000000" d="M 24.5,31.5 C 26.337,31.6395 26.6704,32.3061 25.5,33.5C 24.7025,33.0431 24.3691,32.3764 24.5,31.5 Z"/></g>
<g><path style="opacity:0.766" fill="#000000" d="M 28.5,31.5 C 30.337,31.6395 30.6704,32.3061 29.5,33.5C 28.7025,33.0431 28.3691,32.3764 28.5,31.5 Z"/></g>
<g><path style="opacity:0.766" fill="#000000" d="M 32.5,31.5 C 34.337,31.6395 34.6704,32.3061 33.5,33.5C 32.7025,33.0431 32.3691,32.3764 32.5,31.5 Z"/></g>
<g><path style="opacity:0.766" fill="#000000" d="M 50.5,31.5 C 52.337,31.6395 52.6704,32.3061 51.5,33.5C 50.7025,33.0431 50.3691,32.3764 50.5,31.5 Z"/></g>
<g><path style="opacity:0.512" fill="#000000" d="M 71.5,34.5 C 71.9483,32.5354 72.9483,32.2021 74.5,33.5C 73.675,34.3857 72.675,34.719 71.5,34.5 Z"/></g>
<g><path style="opacity:0.512" fill="#000000" d="M 71.5,34.5 C 72.675,34.719 73.675,34.3857 74.5,33.5C 72.9483,32.2021 71.9483,32.5354 71.5,34.5 Z"/></g>
<g><path style="opacity:0.512" fill="#000000" d="M 14.5,37.5 C 14.9483,35.5354 15.9483,35.2021 17.5,36.5C 16.675,37.3857 15.675,37.719 14.5,37.5 Z"/></g>
<g><path style="opacity:0.766" fill="#000000" d="M 65.5,36.5 C 67.337,36.6395 67.6704,37.3061 66.5,38.5C 65.7025,38.0431 65.3691,37.3764 65.5,36.5 Z"/></g>
<g><path style="opacity:0.512" fill="#000000" d="M 14.5,37.5 C 15.675,37.719 16.675,37.3857 17.5,36.5C 15.9483,35.2021 14.9483,35.5354 14.5,37.5 Z"/></g>
<g><path style="opacity:0.623" fill="#000000" d="M 34.5,37.5 C 46.9901,35.8227 52.1568,41.156 50,53.5C 49.2155,55.286 48.0488,56.786 46.5,58C 33.0744,62.2377 27.2411,57.4043 29,43.5C 30.3597,40.9774 32.193,38.9774 34.5,37.5 Z M 35.5,40.5 C 31.76,43.6427 30.5934,47.6427 32,52.5C 37,57.8333 42,57.8333 47,52.5C 48.4904,43.4892 44.6571,39.4892 35.5,40.5 Z"/></g>
<g><path style="opacity:0.766" fill="#000000" d="M 8.5,39.5 C 10.337,39.6395 10.6704,40.3061 9.5,41.5C 8.70245,41.0431 8.36912,40.3764 8.5,39.5 Z"/></g>
<g><path style="opacity:0.766" fill="#000000" d="M 8.5,43.5 C 10.337,43.6395 10.6704,44.3061 9.5,45.5C 8.70245,45.0431 8.36912,44.3764 8.5,43.5 Z"/></g>
<g><path style="opacity:0.766" fill="#000000" d="M 68.5,43.5 C 70.337,43.6395 70.6704,44.3061 69.5,45.5C 68.7025,45.0431 68.3691,44.3764 68.5,43.5 Z"/></g>
<g><path style="opacity:0.667" fill="#000000" d="M 15.5,44.5 C 22.1584,43.3445 24.1584,45.8445 21.5,52C 14.7496,53.4689 12.7496,50.9689 15.5,44.5 Z M 17.5,47.5 C 17.3691,48.3764 17.7025,49.0431 18.5,49.5C 19.6704,48.3061 19.337,47.6395 17.5,47.5 Z"/></g>
<g><path style="opacity:0.667" fill="#000000" d="M 56.5,44.5 C 63.1584,43.3445 65.1584,45.8445 62.5,52C 55.7496,53.4689 53.7496,50.9689 56.5,44.5 Z M 58.5,47.5 C 58.3691,48.3764 58.7025,49.0431 59.5,49.5C 60.6704,48.3061 60.337,47.6395 58.5,47.5 Z"/></g>
<g><path style="opacity:0.766" fill="#000000" d="M 8.5,47.5 C 10.337,47.6395 10.6704,48.3061 9.5,49.5C 8.70245,49.0431 8.36912,48.3764 8.5,47.5 Z"/></g>
<g><path style="opacity:0.766" fill="#000000" d="M 68.5,47.5 C 70.337,47.6395 70.6704,48.3061 69.5,49.5C 68.7025,49.0431 68.3691,48.3764 68.5,47.5 Z"/></g>
<g><path style="opacity:0.766" fill="#000000" d="M 8.5,51.5 C 10.337,51.6395 10.6704,52.3061 9.5,53.5C 8.70245,53.0431 8.36912,52.3764 8.5,51.5 Z"/></g>
<g><path style="opacity:0.766" fill="#000000" d="M 68.5,51.5 C 70.337,51.6395 70.6704,52.3061 69.5,53.5C 68.7025,53.0431 68.3691,52.3764 68.5,51.5 Z"/></g>
<g><path style="opacity:0.766" fill="#000000" d="M 8.5,55.5 C 10.337,55.6395 10.6704,56.3061 9.5,57.5C 8.70245,57.0431 8.36912,56.3764 8.5,55.5 Z"/></g>
<g><path style="opacity:0.766" fill="#000000" d="M 68.5,55.5 C 70.337,55.6395 70.6704,56.3061 69.5,57.5C 68.7025,57.0431 68.3691,56.3764 68.5,55.5 Z"/></g>
<g><path style="opacity:0.51" fill="#000000" d="M 14.5,59.5 C 12.5354,59.0517 12.2021,58.0517 13.5,56.5C 14.3857,57.325 14.719,58.325 14.5,59.5 Z"/></g>
<g><path style="opacity:0.51" fill="#000000" d="M 64.5,59.5 C 64.281,58.325 64.6143,57.325 65.5,56.5C 66.7979,58.0517 66.4646,59.0517 64.5,59.5 Z"/></g>
<g><path style="opacity:0.511" fill="#000000" d="M 14.5,59.5 C 15.675,59.281 16.675,59.6143 17.5,60.5C 15.9483,61.7979 14.9483,61.4646 14.5,59.5 Z"/></g>
<g><path style="opacity:0.511" fill="#000000" d="M 64.5,59.5 C 66.4646,59.0517 66.7979,58.0517 65.5,56.5C 64.6143,57.325 64.281,58.325 64.5,59.5 Z"/></g>
<g><path style="opacity:0.766" fill="#000000" d="M 16.5,63.5 C 18.337,63.6395 18.6704,64.3061 17.5,65.5C 16.7025,65.0431 16.3691,64.3764 16.5,63.5 Z"/></g>
<g><path style="opacity:0.766" fill="#000000" d="M 20.5,63.5 C 22.337,63.6395 22.6704,64.3061 21.5,65.5C 20.7025,65.0431 20.3691,64.3764 20.5,63.5 Z"/></g>
<g><path style="opacity:0.766" fill="#000000" d="M 24.5,63.5 C 26.337,63.6395 26.6704,64.3061 25.5,65.5C 24.7025,65.0431 24.3691,64.3764 24.5,63.5 Z"/></g>
<g><path style="opacity:0.766" fill="#000000" d="M 28.5,63.5 C 30.337,63.6395 30.6704,64.3061 29.5,65.5C 28.7025,65.0431 28.3691,64.3764 28.5,63.5 Z"/></g>
<g><path style="opacity:0.766" fill="#000000" d="M 32.5,63.5 C 34.337,63.6395 34.6704,64.3061 33.5,65.5C 32.7025,65.0431 32.3691,64.3764 32.5,63.5 Z"/></g>
<g><path style="opacity:0.766" fill="#000000" d="M 36.5,63.5 C 38.337,63.6395 38.6704,64.3061 37.5,65.5C 36.7025,65.0431 36.3691,64.3764 36.5,63.5 Z"/></g>
<g><path style="opacity:0.766" fill="#000000" d="M 40.5,63.5 C 42.337,63.6395 42.6704,64.3061 41.5,65.5C 40.7025,65.0431 40.3691,64.3764 40.5,63.5 Z"/></g>
<g><path style="opacity:0.766" fill="#000000" d="M 44.5,63.5 C 46.337,63.6395 46.6704,64.3061 45.5,65.5C 44.7025,65.0431 44.3691,64.3764 44.5,63.5 Z"/></g>
<g><path style="opacity:0.766" fill="#000000" d="M 48.5,63.5 C 50.337,63.6395 50.6704,64.3061 49.5,65.5C 48.7025,65.0431 48.3691,64.3764 48.5,63.5 Z"/></g>
<g><path style="opacity:0.766" fill="#000000" d="M 52.5,63.5 C 54.337,63.6395 54.6704,64.3061 53.5,65.5C 52.7025,65.0431 52.3691,64.3764 52.5,63.5 Z"/></g>
<g><path style="opacity:0.766" fill="#000000" d="M 56.5,63.5 C 58.337,63.6395 58.6704,64.3061 57.5,65.5C 56.7025,65.0431 56.3691,64.3764 56.5,63.5 Z"/></g>
<g><path style="opacity:0.766" fill="#000000" d="M 60.5,63.5 C 62.337,63.6395 62.6704,64.3061 61.5,65.5C 60.7025,65.0431 60.3691,64.3764 60.5,63.5 Z"/></g>
</svg>
