<?xml version="1.0" encoding="UTF-8"?>
<!DOCTYPE svg PUBLIC "-//W3C//DTD SVG 1.1//EN" "http://www.w3.org/Graphics/SVG/1.1/DTD/svg11.dtd">
<svg xmlns="http://www.w3.org/2000/svg" version="1.1" width="100px" height="100px" style="shape-rendering:geometricPrecision; text-rendering:geometricPrecision; image-rendering:optimizeQuality; fill-rule:evenodd; clip-rule:evenodd" xmlns:xlink="http://www.w3.org/1999/xlink">
<g><path style="opacity:0.787" fill="#000000" d="M 39.5,7.5 C 67.9223,4.45216 86.4223,16.4522 95,43.5C 97.5549,56.9292 95.0549,69.2626 87.5,80.5C 85.9547,81.4519 84.288,81.7852 82.5,81.5C 82.2865,79.8561 82.6198,78.3561 83.5,77C 82.1322,75.6598 80.7989,74.3264 79.5,73C 79.6448,72.228 79.9781,71.5613 80.5,71C 82.7914,70.9846 84.9581,70.8179 87,70.5C 89.2699,65.754 90.4366,60.754 90.5,55.5C 88.8333,55.5 87.1667,55.5 85.5,55.5C 85.5,54.1667 85.5,52.8333 85.5,51.5C 87.1667,51.5 88.8333,51.5 90.5,51.5C 90.4366,46.246 89.2699,41.246 87,36.5C 85.0257,36.3744 82.859,36.2078 80.5,36C 80.0426,35.586 79.7093,35.086 79.5,34.5C 80.5,32.8333 81.8333,31.5 83.5,30.5C 80.8333,25.8333 77.1667,22.1667 72.5,19.5C 70.7029,23.767 68.3695,24.267 65.5,21C 68.0881,18.2323 67.7548,16.2323 64.5,15C 60.3678,13.1003 56.0345,12.267 51.5,12.5C 51.5,14.1667 51.5,15.8333 51.5,17.5C 50.1667,17.5 48.8333,17.5 47.5,17.5C 47.5,15.8333 47.5,14.1667 47.5,12.5C 41.6607,12.2808 36.3274,13.7808 31.5,17C 34.2157,19.7932 33.8824,21.9599 30.5,23.5C 28.8333,22.5 27.5,21.1667 26.5,19.5C 21.8333,22.1667 18.1667,25.8333 15.5,30.5C 21.1074,35.2853 20.2741,36.952 13,35.5C 9.94971,40.3641 8.44971,45.6974 8.5,51.5C 10.1667,51.5 11.8333,51.5 13.5,51.5C 13.5,52.8333 13.5,54.1667 13.5,55.5C 11.8333,55.5 10.1667,55.5 8.5,55.5C 8.56344,60.754 9.73011,65.754 12,70.5C 14.0419,70.8179 16.2086,70.9846 18.5,71C 18.9574,71.414 19.2907,71.914 19.5,72.5C 18.3523,74.1487 17.019,75.6487 15.5,77C 16.3802,78.3561 16.7135,79.8561 16.5,81.5C 14.712,81.7852 13.0453,81.4519 11.5,80.5C 3.47596,67.8421 1.30929,54.1754 5,39.5C 11.278,23.0503 22.778,12.3836 39.5,7.5 Z M 46.5,48.5 C 54.4863,47.998 56.4863,51.1647 52.5,58C 44.424,58.8047 42.424,55.638 46.5,48.5 Z"/></g>
<g><path style="opacity:0.792" fill="#000000" d="M 74.5,36.5 C 76.3547,36.272 77.1881,36.9387 77,38.5C 71.3333,43.5 65.6667,48.5 60,53.5C 58.476,62.3278 53.3093,65.4944 44.5,63C 39.7255,59.3449 38.2255,54.5116 40,48.5C 44.061,43.4916 49.2277,42.1582 55.5,44.5C 62.0378,42.057 68.3712,39.3904 74.5,36.5 Z M 46.5,48.5 C 42.424,55.638 44.424,58.8047 52.5,58C 56.4863,51.1647 54.4863,47.998 46.5,48.5 Z"/></g>
<g><path style="opacity:0.951" fill="#000000" d="M 27.5,79.5 C 42.1818,79.1674 56.8485,79.5007 71.5,80.5C 72.5748,83.438 72.7415,86.438 72,89.5C 64.7355,90.8152 57.2355,91.4819 49.5,91.5C 42.1667,91.1667 34.8333,90.8333 27.5,90.5C 26.2494,86.836 26.2494,83.1693 27.5,79.5 Z M 31.5,83.5 C 43.5,83.5 55.5,83.5 67.5,83.5C 67.5,84.8333 67.5,86.1667 67.5,87.5C 55.5,87.5 43.5,87.5 31.5,87.5C 31.5,86.1667 31.5,84.8333 31.5,83.5 Z"/></g>
</svg>
